<svg width="53" height="53" viewBox="0 0 53 53" fill="none" xmlns="http://www.w3.org/2000/svg">
<g id="bi:file" clip-path="url(#clip0_467_301)">
<path id="Vector" d="M13.25 0C11.4929 0 9.80785 0.697989 8.56542 1.94042C7.32299 3.18285 6.625 4.86794 6.625 6.625V46.375C6.625 48.1321 7.32299 49.8172 8.56542 51.0596C9.80785 52.302 11.4929 53 13.25 53H39.75C41.5071 53 43.1922 52.302 44.4346 51.0596C45.677 49.8172 46.375 48.1321 46.375 46.375V6.625C46.375 4.86794 45.677 3.18285 44.4346 1.94042C43.1922 0.697989 41.5071 0 39.75 0L13.25 0ZM13.25 3.3125H39.75C40.6285 3.3125 41.4711 3.66149 42.0923 4.28271C42.7135 4.90392 43.0625 5.74647 43.0625 6.625V46.375C43.0625 47.2535 42.7135 48.0961 42.0923 48.7173C41.4711 49.3385 40.6285 49.6875 39.75 49.6875H13.25C12.3715 49.6875 11.5289 49.3385 10.9077 48.7173C10.2865 48.0961 9.9375 47.2535 9.9375 46.375V6.625C9.9375 5.74647 10.2865 4.90392 10.9077 4.28271C11.5289 3.66149 12.3715 3.3125 13.25 3.3125Z" fill="#242323"/>
<path id="Vector 30" d="M15 12H38" stroke="#242323" stroke-width="2" stroke-linecap="round"/>
<path id="Vector 31" d="M15 22H38" stroke="#242323" stroke-width="2" stroke-linecap="round"/>
<path id="Vector 32" d="M15 32H38" stroke="#242323" stroke-width="2" stroke-linecap="round"/>
<path id="Vector 33" d="M15 42H38" stroke="#242323" stroke-width="2" stroke-linecap="round"/>
</g>
<defs>
<clipPath id="clip0_467_301">
<rect width="53" height="53" fill="white"/>
</clipPath>
</defs>
</svg>
