<svg width="24" height="24" viewBox="0 0 24 24" fill="none" xmlns="http://www.w3.org/2000/svg">
<g id="fluent:handshake-16-regular">
<path id="Vector" d="M12.308 3.00905C12.1996 3.00894 12.0925 3.03236 11.9941 3.07768C11.8957 3.123 11.8083 3.18915 11.738 3.27155L11.663 3.32555C9.40546 2.66255 6.84496 3.17555 5.05846 4.86605C3.47296 6.36455 2.86696 8.43755 3.23896 10.377L3.21646 10.398L2.20996 11.3505C2.00489 11.5398 1.84123 11.7694 1.7293 12.025C1.61736 12.2805 1.55957 12.5565 1.55957 12.8355C1.55957 13.1146 1.61736 13.3906 1.7293 13.6461C1.84123 13.9017 2.00489 14.1313 2.20996 14.3205C2.72296 14.808 3.42796 15.006 4.09546 14.9145C4.19146 15.264 4.38496 15.5955 4.67446 15.87C5.06596 16.2405 5.56846 16.443 6.08146 16.479C6.11896 16.9635 6.33346 17.439 6.72646 17.8095C7.11646 18.18 7.61896 18.3825 8.13196 18.4185C8.16946 18.903 8.38396 19.3785 8.77696 19.749C9.16819 20.1106 9.67203 20.3263 10.2037 20.3599C10.7353 20.3935 11.2623 20.243 11.696 19.9335L12.191 20.4015C13.061 21.2265 14.4755 21.2265 15.347 20.4015C15.737 20.031 15.953 19.56 15.992 19.077C16.502 19.0395 17 18.837 17.39 18.468C17.78 18.099 17.996 17.6265 18.035 17.1435C18.5375 17.103 19.028 16.9005 19.415 16.536C19.7165 16.2495 19.9145 15.9 20.0045 15.5325C20.6645 15.612 21.353 15.4125 21.8585 14.9355C22.0635 14.7463 22.2272 14.5167 22.3391 14.2611C22.4511 14.0056 22.5089 13.7296 22.5089 13.4505C22.5089 13.1715 22.4511 12.8955 22.3391 12.64C22.2272 12.3844 22.0635 12.1548 21.8585 11.9655L20.9675 11.1225L21.137 10.4925C21.5301 9.03299 21.3312 7.47725 20.5835 6.16355C19.481 4.21055 17.3465 3.01355 15.0485 3.01355H13.52C13.451 3.01037 13.382 3.00887 13.313 3.00905H12.308ZM18.866 11.1945L19.595 11.9145C19.6404 11.9588 19.6913 11.9971 19.7465 12.0285L20.768 12.9945C20.8308 13.0524 20.8809 13.1227 20.9152 13.2009C20.9495 13.2791 20.9672 13.3636 20.9672 13.449C20.9672 13.5345 20.9495 13.6189 20.9152 13.6972C20.8809 13.7754 20.8308 13.8457 20.768 13.9035C20.6372 14.0241 20.4658 14.0911 20.288 14.0911C20.1101 14.0911 19.9387 14.0241 19.808 13.9035L18.098 12.288C17.9497 12.1511 17.7553 12.0751 17.5535 12.0751C17.3516 12.0751 17.1572 12.1511 17.009 12.288L16.991 12.303C16.9201 12.369 16.8636 12.4489 16.8249 12.5377C16.7863 12.6264 16.7663 12.7222 16.7663 12.819C16.7663 12.9159 16.7863 13.0117 16.8249 13.1004C16.8636 13.1892 16.9201 13.2691 16.991 13.335L18.3245 14.595C18.3871 14.653 18.437 14.7234 18.4712 14.8016C18.5054 14.8798 18.523 14.9642 18.523 15.0495C18.523 15.1349 18.5054 15.2193 18.4712 15.2975C18.437 15.3757 18.3871 15.4461 18.3245 15.504C18.2054 15.6142 18.0522 15.6803 17.8903 15.6912C17.7285 15.7021 17.5677 15.6572 17.435 15.564C17.284 15.4574 17.1009 15.406 16.9165 15.4186C16.732 15.4312 16.5576 15.5069 16.4225 15.633C16.2918 15.7547 16.2125 15.9217 16.2008 16.0998C16.1891 16.2779 16.2458 16.4538 16.3595 16.5915C16.4593 16.7136 16.5086 16.8692 16.4975 17.0265C16.4863 17.1837 16.4155 17.3308 16.2995 17.4375C16.1788 17.5492 16.023 17.6155 15.8589 17.6251C15.6947 17.6347 15.5323 17.5869 15.3995 17.49C15.2495 17.3801 15.066 17.3255 14.8803 17.3356C14.6946 17.3457 14.5181 17.4199 14.381 17.5455C14.2481 17.667 14.1672 17.835 14.1549 18.0146C14.1426 18.1942 14.1999 18.3716 14.315 18.51C14.525 18.765 14.5055 19.1355 14.2565 19.371C14.1236 19.4933 13.9496 19.5612 13.769 19.5612C13.5884 19.5612 13.4144 19.4933 13.2815 19.371L12.7985 18.915L12.9245 18.7965C13.1295 18.6073 13.2932 18.3777 13.4051 18.1221C13.5171 17.8666 13.5749 17.5906 13.5749 17.3115C13.5749 17.0325 13.5171 16.7565 13.4051 16.501C13.2932 16.2454 13.1295 16.0157 12.9245 15.8265C12.5403 15.4665 12.0429 15.2512 11.5175 15.2175C11.476 14.7091 11.2459 14.2346 10.8725 13.887C10.4888 13.5269 9.99204 13.3111 9.46696 13.2765C9.42548 12.7681 9.19542 12.2936 8.82196 11.946C8.57169 11.713 8.27254 11.5387 7.94635 11.4359C7.62016 11.3332 7.27514 11.3045 6.93646 11.352C6.83465 10.9869 6.63434 10.6569 6.35746 10.398C6.13639 10.1912 5.87642 10.0303 5.59266 9.92471C5.3089 9.81914 5.00699 9.77099 4.70446 9.78305C4.62382 9.06748 4.71238 8.34298 4.96303 7.66792C5.21367 6.99285 5.61938 6.3861 6.14746 5.89655C6.66407 5.41413 7.27387 5.04246 7.93939 4.80437C8.60491 4.56627 9.31209 4.4668 10.0175 4.51205L8.37496 5.69705C8.1229 5.87599 7.91031 6.10483 7.75037 6.36936C7.59044 6.63389 7.48657 6.92847 7.44522 7.23481C7.40387 7.54115 7.42591 7.85272 7.50999 8.15019C7.59406 8.44766 7.73837 8.72467 7.93396 8.96405C8.32849 9.44733 8.89191 9.76266 9.51016 9.8462C10.1284 9.92975 10.7553 9.77528 11.264 9.41405L13.2845 7.95905H15.4445L18.866 11.1945ZM9.25246 6.91205L12.587 4.50905H13.3145C13.377 4.50842 13.4395 4.50992 13.502 4.51355H15.047C16.835 4.51355 18.455 5.44355 19.277 6.90155C19.8065 7.83605 19.964 8.91155 19.73 9.94055L16.4105 6.67355C16.2703 6.53609 16.0818 6.45908 15.8855 6.45905H13.04C12.8828 6.45899 12.7296 6.50832 12.602 6.60005L10.388 8.19755C10.1908 8.33459 9.94935 8.39273 9.71138 8.36052C9.4734 8.32831 9.25614 8.20808 9.10246 8.02355C9.03472 7.94276 8.98459 7.84872 8.95528 7.74744C8.92597 7.64617 8.91813 7.53989 8.93225 7.43541C8.94637 7.33093 8.98214 7.23055 9.03728 7.14068C9.09242 7.05082 9.16571 6.97346 9.25246 6.91355V6.91205ZM10.8755 16.854C11.0066 16.7339 11.1782 16.6674 11.356 16.668C11.5339 16.6685 11.7051 16.736 11.8355 16.857C11.8983 16.9149 11.9484 16.9852 11.9827 17.0634C12.017 17.1416 12.0347 17.2261 12.0347 17.3115C12.0347 17.397 12.017 17.4814 11.9827 17.5597C11.9484 17.6379 11.8983 17.7082 11.8355 17.766L10.8275 18.7185C10.6967 18.8391 10.5253 18.9061 10.3475 18.9061C10.1696 18.9061 9.99822 18.8391 9.86746 18.7185C9.80465 18.6607 9.75451 18.5904 9.72021 18.5122C9.68592 18.4339 9.66821 18.3495 9.66821 18.264C9.66821 18.1786 9.68592 18.0941 9.72021 18.0159C9.75451 17.9377 9.80465 17.8674 9.86746 17.8095L10.8755 16.8555V16.854ZM9.78646 15.8235L8.77696 16.779C8.64612 16.9001 8.47444 16.9673 8.29621 16.9673C8.11798 16.9673 7.94631 16.9001 7.81546 16.779C7.75404 16.7224 7.70475 16.6538 7.67058 16.5775C7.63641 16.5012 7.61807 16.4188 7.61667 16.3353C7.61527 16.2517 7.63084 16.1687 7.66243 16.0913C7.69402 16.0139 7.74097 15.9438 7.80046 15.885L7.81546 15.87L8.82196 14.9175L8.83696 14.9025C8.96876 14.7878 9.13835 14.7258 9.31309 14.7286C9.48782 14.7314 9.65536 14.7987 9.78346 14.9175C9.84599 14.9752 9.89595 15.0451 9.93021 15.1229C9.96448 15.2008 9.98231 15.2849 9.98259 15.3699C9.98287 15.4549 9.9656 15.5391 9.93185 15.6172C9.8981 15.6952 9.84861 15.7655 9.78646 15.8235ZM7.73146 13.887L6.72646 14.838L6.70996 14.853C6.57826 14.9674 6.40898 15.0291 6.23459 15.0263C6.0602 15.0235 5.89297 14.9565 5.76496 14.838C5.70215 14.7802 5.65201 14.7099 5.61771 14.6317C5.58342 14.5534 5.56571 14.469 5.56571 14.3835C5.56571 14.2981 5.58342 14.2136 5.61771 14.1354C5.65201 14.0572 5.70215 13.9869 5.76496 13.929L6.76996 12.978C6.90089 12.8566 7.07288 12.7891 7.25146 12.7891C7.43005 12.7891 7.60204 12.8566 7.73296 12.978C7.79439 13.0347 7.84367 13.1033 7.87784 13.1796C7.91201 13.2558 7.93035 13.3383 7.93175 13.4218C7.93315 13.5054 7.91759 13.5884 7.886 13.6658C7.85441 13.7432 7.80745 13.8133 7.74796 13.872L7.73296 13.887H7.73146ZM5.26846 12.3375L4.26196 13.29C4.1312 13.4106 3.95984 13.4776 3.78196 13.4776C3.60408 13.4776 3.43272 13.4106 3.30196 13.29C3.23915 13.2322 3.18901 13.1619 3.15471 13.0837C3.12042 13.0054 3.10272 12.921 3.10272 12.8355C3.10272 12.7501 3.12042 12.6656 3.15471 12.5874C3.18901 12.5092 3.23915 12.4389 3.30196 12.381L4.30696 11.4285C4.43781 11.3075 4.60948 11.2403 4.78771 11.2403C4.96594 11.2403 5.13762 11.3075 5.26846 11.4285C5.33128 11.4864 5.38142 11.5567 5.41571 11.6349C5.45 11.7131 5.46771 11.7976 5.46771 11.883C5.46771 11.9685 5.45 12.0529 5.41571 12.1312C5.38142 12.2094 5.33128 12.2797 5.26846 12.3375Z" fill="#8AC53E"/>
</g>
</svg>
