<svg width="24" height="24" viewBox="0 0 24 24" fill="none" xmlns="http://www.w3.org/2000/svg">
<g id="fluent:handshake-16-regular">
<path id="Vector" d="M12.3075 3.00905C12.1991 3.00894 12.092 3.03236 11.9936 3.07768C11.8952 3.123 11.8078 3.18915 11.7375 3.27155L11.6625 3.32555C9.40497 2.66255 6.84447 3.17555 5.05797 4.86605C3.47247 6.36455 2.86647 8.43755 3.23847 10.377L3.21597 10.398L2.20947 11.3505C2.00441 11.5398 1.84075 11.7694 1.72881 12.025C1.61687 12.2805 1.55908 12.5565 1.55908 12.8355C1.55908 13.1146 1.61687 13.3906 1.72881 13.6461C1.84075 13.9017 2.00441 14.1313 2.20947 14.3205C2.72247 14.808 3.42747 15.006 4.09497 14.9145C4.19097 15.264 4.38447 15.5955 4.67397 15.87C5.06547 16.2405 5.56797 16.443 6.08097 16.479C6.11847 16.9635 6.33297 17.439 6.72597 17.8095C7.11597 18.18 7.61847 18.3825 8.13147 18.4185C8.16897 18.903 8.38347 19.3785 8.77647 19.749C9.1677 20.1106 9.67154 20.3263 10.2032 20.3599C10.7348 20.3935 11.2618 20.243 11.6955 19.9335L12.1905 20.4015C13.0605 21.2265 14.475 21.2265 15.3465 20.4015C15.7365 20.031 15.9525 19.56 15.9915 19.077C16.5015 19.0395 16.9995 18.837 17.3895 18.468C17.7795 18.099 17.9955 17.6265 18.0345 17.1435C18.537 17.103 19.0275 16.9005 19.4145 16.536C19.716 16.2495 19.914 15.9 20.004 15.5325C20.664 15.612 21.3525 15.4125 21.858 14.9355C22.063 14.7463 22.2267 14.5167 22.3386 14.2611C22.4506 14.0056 22.5084 13.7296 22.5084 13.4505C22.5084 13.1715 22.4506 12.8955 22.3386 12.64C22.2267 12.3844 22.063 12.1548 21.858 11.9655L20.967 11.1225L21.1365 10.4925C21.5296 9.03299 21.3307 7.47725 20.583 6.16355C19.4805 4.21055 17.346 3.01355 15.048 3.01355H13.5195C13.4505 3.01037 13.3815 3.00887 13.3125 3.00905H12.3075ZM18.8655 11.1945L19.5945 11.9145C19.6399 11.9588 19.6909 11.9971 19.746 12.0285L20.7675 12.9945C20.8303 13.0524 20.8804 13.1227 20.9147 13.2009C20.949 13.2791 20.9667 13.3636 20.9667 13.449C20.9667 13.5345 20.949 13.6189 20.9147 13.6972C20.8804 13.7754 20.8303 13.8457 20.7675 13.9035C20.6367 14.0241 20.4654 14.0911 20.2875 14.0911C20.1096 14.0911 19.9382 14.0241 19.8075 13.9035L18.0975 12.288C17.9492 12.1511 17.7548 12.0751 17.553 12.0751C17.3511 12.0751 17.1567 12.1511 17.0085 12.288L16.9905 12.303C16.9196 12.369 16.8631 12.4489 16.8244 12.5377C16.7858 12.6264 16.7659 12.7222 16.7659 12.819C16.7659 12.9159 16.7858 13.0117 16.8244 13.1004C16.8631 13.1892 16.9196 13.2691 16.9905 13.335L18.324 14.595C18.3866 14.653 18.4365 14.7234 18.4707 14.8016C18.5049 14.8798 18.5225 14.9642 18.5225 15.0495C18.5225 15.1349 18.5049 15.2193 18.4707 15.2975C18.4365 15.3757 18.3866 15.4461 18.324 15.504C18.2049 15.6142 18.0517 15.6803 17.8898 15.6912C17.728 15.7021 17.5673 15.6572 17.4345 15.564C17.2835 15.4574 17.1004 15.406 16.916 15.4186C16.7315 15.4312 16.5571 15.5069 16.422 15.633C16.2913 15.7547 16.212 15.9217 16.2003 16.0998C16.1886 16.2779 16.2454 16.4538 16.359 16.5915C16.4588 16.7136 16.5082 16.8692 16.497 17.0265C16.4858 17.1837 16.415 17.3308 16.299 17.4375C16.1783 17.5492 16.0225 17.6155 15.8584 17.6251C15.6942 17.6347 15.5318 17.5869 15.399 17.49C15.249 17.3801 15.0655 17.3255 14.8798 17.3356C14.6941 17.3457 14.5176 17.4199 14.3805 17.5455C14.2477 17.667 14.1667 17.835 14.1544 18.0146C14.1421 18.1942 14.1994 18.3716 14.3145 18.51C14.5245 18.765 14.505 19.1355 14.256 19.371C14.1231 19.4933 13.9491 19.5612 13.7685 19.5612C13.5879 19.5612 13.4139 19.4933 13.281 19.371L12.798 18.915L12.924 18.7965C13.129 18.6073 13.2927 18.3777 13.4046 18.1221C13.5166 17.8666 13.5744 17.5906 13.5744 17.3115C13.5744 17.0325 13.5166 16.7565 13.4046 16.501C13.2927 16.2454 13.129 16.0157 12.924 15.8265C12.5398 15.4665 12.0424 15.2512 11.517 15.2175C11.4755 14.7091 11.2454 14.2346 10.872 13.887C10.4884 13.5269 9.99155 13.3111 9.46647 13.2765C9.42499 12.7681 9.19493 12.2936 8.82147 11.946C8.5712 11.713 8.27205 11.5387 7.94586 11.4359C7.61967 11.3332 7.27465 11.3045 6.93597 11.352C6.83416 10.9869 6.63385 10.6569 6.35697 10.398C6.1359 10.1912 5.87594 10.0303 5.59217 9.92471C5.30841 9.81914 5.0065 9.77099 4.70397 9.78305C4.62333 9.06748 4.71189 8.34298 4.96254 7.66792C5.21318 6.99285 5.61889 6.3861 6.14697 5.89655C6.66358 5.41413 7.27338 5.04246 7.9389 4.80437C8.60442 4.56627 9.3116 4.4668 10.017 4.51205L8.37447 5.69705C8.12242 5.87599 7.90982 6.10483 7.74989 6.36936C7.58995 6.63389 7.48608 6.92847 7.44473 7.23481C7.40338 7.54115 7.42542 7.85272 7.5095 8.15019C7.59357 8.44766 7.73788 8.72467 7.93347 8.96405C8.32801 9.44733 8.89142 9.76266 9.50967 9.8462C10.1279 9.92975 10.7548 9.77528 11.2635 9.41405L13.284 7.95905H15.444L18.8655 11.1945ZM9.25197 6.91205L12.5865 4.50905H13.314C13.3765 4.50842 13.439 4.50992 13.5015 4.51355H15.0465C16.8345 4.51355 18.4545 5.44355 19.2765 6.90155C19.806 7.83605 19.9635 8.91155 19.7295 9.94055L16.41 6.67355C16.2698 6.53609 16.0813 6.45908 15.885 6.45905H13.0395C12.8823 6.45899 12.7291 6.50832 12.6015 6.60005L10.3875 8.19755C10.1903 8.33459 9.94886 8.39273 9.71089 8.36052C9.47291 8.32831 9.25565 8.20808 9.10197 8.02355C9.03423 7.94276 8.98411 7.84872 8.9548 7.74744C8.92549 7.64617 8.91764 7.53989 8.93176 7.43541C8.94588 7.33093 8.98165 7.23055 9.03679 7.14068C9.09193 7.05082 9.16522 6.97346 9.25197 6.91355V6.91205ZM10.875 16.854C11.0061 16.7339 11.1777 16.6674 11.3556 16.668C11.5334 16.6685 11.7046 16.736 11.835 16.857C11.8978 16.9149 11.9479 16.9852 11.9822 17.0634C12.0165 17.1416 12.0342 17.2261 12.0342 17.3115C12.0342 17.397 12.0165 17.4814 11.9822 17.5597C11.9479 17.6379 11.8978 17.7082 11.835 17.766L10.827 18.7185C10.6962 18.8391 10.5249 18.9061 10.347 18.9061C10.1691 18.9061 9.99773 18.8391 9.86697 18.7185C9.80416 18.6607 9.75402 18.5904 9.71973 18.5122C9.68543 18.4339 9.66773 18.3495 9.66773 18.264C9.66773 18.1786 9.68543 18.0941 9.71973 18.0159C9.75402 17.9377 9.80416 17.8674 9.86697 17.8095L10.875 16.8555V16.854ZM9.78597 15.8235L8.77647 16.779C8.64563 16.9001 8.47396 16.9673 8.29572 16.9673C8.11749 16.9673 7.94582 16.9001 7.81497 16.779C7.75355 16.7224 7.70426 16.6538 7.67009 16.5775C7.63593 16.5012 7.61759 16.4188 7.61618 16.3353C7.61478 16.2517 7.63035 16.1687 7.66194 16.0913C7.69353 16.0139 7.74049 15.9438 7.79997 15.885L7.81497 15.87L8.82147 14.9175L8.83647 14.9025C8.96828 14.7878 9.13786 14.7258 9.3126 14.7286C9.48734 14.7314 9.65487 14.7987 9.78297 14.9175C9.8455 14.9752 9.89546 15.0451 9.92972 15.1229C9.96399 15.2008 9.98182 15.2849 9.9821 15.3699C9.98238 15.4549 9.96511 15.5391 9.93136 15.6172C9.89761 15.6952 9.84812 15.7655 9.78597 15.8235ZM7.73097 13.887L6.72597 14.838L6.70947 14.853C6.57777 14.9674 6.40849 15.0291 6.2341 15.0263C6.05972 15.0235 5.89248 14.9565 5.76447 14.838C5.70166 14.7802 5.65152 14.7099 5.61723 14.6317C5.58293 14.5534 5.56523 14.469 5.56523 14.3835C5.56523 14.2981 5.58293 14.2136 5.61723 14.1354C5.65152 14.0572 5.70166 13.9869 5.76447 13.929L6.76947 12.978C6.9004 12.8566 7.07239 12.7891 7.25097 12.7891C7.42956 12.7891 7.60155 12.8566 7.73247 12.978C7.7939 13.0347 7.84318 13.1033 7.87735 13.1796C7.91152 13.2558 7.92986 13.3383 7.93126 13.4218C7.93267 13.5054 7.9171 13.5884 7.88551 13.6658C7.85392 13.7432 7.80696 13.8133 7.74747 13.872L7.73247 13.887H7.73097ZM5.26797 12.3375L4.26147 13.29C4.13072 13.4106 3.95935 13.4776 3.78147 13.4776C3.60359 13.4776 3.43223 13.4106 3.30147 13.29C3.23866 13.2322 3.18852 13.1619 3.15423 13.0837C3.11993 13.0054 3.10223 12.921 3.10223 12.8355C3.10223 12.7501 3.11993 12.6656 3.15423 12.5874C3.18852 12.5092 3.23866 12.4389 3.30147 12.381L4.30647 11.4285C4.43732 11.3075 4.60899 11.2403 4.78722 11.2403C4.96546 11.2403 5.13713 11.3075 5.26797 11.4285C5.33079 11.4864 5.38093 11.5567 5.41522 11.6349C5.44952 11.7131 5.46722 11.7976 5.46722 11.883C5.46722 11.9685 5.44952 12.0529 5.41522 12.1312C5.38093 12.2094 5.33079 12.2797 5.26797 12.3375Z" fill="#8AC53E"/>
</g>
</svg>
