<svg width="24" height="24" viewBox="0 0 24 24" fill="none" xmlns="http://www.w3.org/2000/svg">
<g id="iconoir:map">
<path id="Vector" d="M9 19L3.79 20.737C3.69973 20.7671 3.60358 20.7754 3.5095 20.761C3.41542 20.7467 3.32611 20.7101 3.24893 20.6544C3.17175 20.5988 3.10893 20.5255 3.06565 20.4408C3.02236 20.356 2.99986 20.2622 3 20.167V5.433C3.00003 5.30714 3.03963 5.18447 3.11321 5.08236C3.18679 4.98025 3.29062 4.90386 3.41 4.864L9 3M9 19L15 21M9 19V3M9 3L15 5M15 21L20.59 19.137C20.7095 19.0971 20.8135 19.0205 20.8871 18.9182C20.9607 18.8159 21.0002 18.693 21 18.567V3.832C21 3.73692 20.9774 3.6432 20.934 3.55857C20.8907 3.47394 20.8278 3.40083 20.7507 3.34526C20.6735 3.28969 20.5843 3.25325 20.4902 3.23895C20.3962 3.22465 20.3002 3.23289 20.21 3.263L15 5M15 21V5" stroke="#A9A9A9" stroke-width="1.5" stroke-linecap="round" stroke-linejoin="round"/>
</g>
</svg>
