<svg width="53" height="53" viewBox="0 0 53 53" fill="none" xmlns="http://www.w3.org/2000/svg">
<g id="solar:file-broken">
<g id="Group">
<path id="Vector" d="M6.07325 22.0833C6.07325 21.644 5.89875 21.2228 5.58814 20.9121C5.27753 20.6015 4.85626 20.427 4.417 20.427C3.97773 20.427 3.55646 20.6015 3.24585 20.9121C2.93524 21.2228 2.76074 21.644 2.76074 22.0833H6.07325ZM46.9274 30.9166C46.9274 31.3559 47.1019 31.7772 47.4125 32.0878C47.7231 32.3984 48.1444 32.5729 48.5837 32.5729C49.0229 32.5729 49.4442 32.3984 49.7548 32.0878C50.0654 31.7772 50.2399 31.3559 50.2399 30.9166H46.9274ZM2.99262 13.0888C2.94986 13.526 3.08254 13.9623 3.36147 14.3016C3.64039 14.641 4.04272 14.8557 4.47993 14.8985C4.91715 14.9412 5.35344 14.8086 5.69283 14.5296C6.03222 14.2507 6.24691 13.8484 6.28966 13.4112L2.99262 13.0888ZM50.008 39.9112C50.0292 39.6947 50.0075 39.4761 49.9442 39.268C49.881 39.0599 49.7773 38.8663 49.6392 38.6983C49.5011 38.5302 49.3312 38.391 49.1393 38.2886C48.9474 38.1862 48.7372 38.1226 48.5207 38.1014C48.3042 38.0803 48.0857 38.1019 47.8776 38.1652C47.6695 38.2285 47.4759 38.3322 47.3078 38.4703C46.9684 38.7492 46.7538 39.1515 46.711 39.5887L50.008 39.9112ZM30.917 46.927H22.0837V50.2395H30.917V46.927ZM6.07325 30.9166V22.0833H2.76074V30.9166H6.07325ZM46.9274 29.9516V30.9166H50.2399V29.9516H46.9274ZM32.8846 10.1826L41.6274 18.0509L43.8424 15.5864L35.1018 7.71808L32.8846 10.1826ZM50.2399 29.9516C50.2399 26.2217 50.273 23.8588 49.3345 21.7476L46.3069 23.0969C46.8943 24.4175 46.9274 25.9302 46.9274 29.9516H50.2399ZM41.6274 18.0509C44.6153 20.7406 45.7195 21.7785 46.3069 23.0969L49.3345 21.7476C48.3937 19.6342 46.616 18.0818 43.8424 15.5864L41.6274 18.0509ZM22.1499 6.07288C25.6435 6.07288 26.9619 6.09938 28.1345 6.54988L29.3226 3.45821C27.4411 2.73388 25.3917 2.76038 22.1499 2.76038V6.07288ZM35.1018 7.72029C32.7035 5.56275 31.2041 4.17813 29.3226 3.45821L28.1367 6.54988C29.3115 7.00038 30.3009 7.85721 32.8846 10.1826L35.1018 7.72029ZM22.0837 46.927C17.8724 46.927 14.8823 46.9226 12.6099 46.6179C10.3905 46.3198 9.1097 45.7588 8.17558 44.8247L5.83475 47.1655C7.48658 48.8218 9.58229 49.5527 12.1705 49.9017C14.71 50.244 17.9673 50.2395 22.0837 50.2395V46.927ZM2.76074 30.9166C2.76074 35.033 2.75633 38.288 3.09862 40.8298C3.44754 43.418 4.1807 45.5137 5.83254 47.1677L8.17337 44.8269C7.24145 43.8906 6.68054 42.6097 6.38241 40.3882C6.07766 38.1202 6.07325 35.1279 6.07325 30.9166H2.76074ZM30.917 50.2395C35.0333 50.2395 38.2884 50.244 40.8302 49.9017C43.4184 49.5527 45.5141 48.8196 47.1681 47.1677L44.8273 44.8269C43.891 45.7588 42.6101 46.3198 40.3885 46.6179C38.1206 46.9226 35.1283 46.927 30.917 46.927V50.2395ZM22.1499 2.76038C18.0093 2.76038 14.7387 2.75596 12.1881 3.09825C9.58891 3.44717 7.48658 4.18034 5.83254 5.83217L8.17337 8.173C9.1097 7.24109 10.3927 6.68017 12.6276 6.38204C14.9088 6.07729 17.9165 6.07288 22.1499 6.07288V2.76038ZM6.28966 13.4112C6.55687 10.6861 7.13324 9.21533 8.17558 8.17521L5.83475 5.83438C3.98858 7.67613 3.28854 10.0722 2.99262 13.0888L6.28966 13.4112ZM46.711 39.5887C46.4438 42.3138 45.8652 43.7846 44.8251 44.8247L47.1659 47.1655C49.0121 45.3238 49.7121 42.9277 50.008 39.9112L46.711 39.5887Z" fill="#242323"/>
<path id="Vector_2" d="M28.709 5.52075V11.0416C28.709 16.2466 28.709 18.8503 30.3255 20.4668C31.942 22.0833 34.5456 22.0833 39.7507 22.0833H48.584" stroke="#242323" stroke-width="1.5"/>
</g>
</g>
</svg>
