<svg xmlns="http://www.w3.org/2000/svg" width="13" height="16" viewBox="0 0 13 16" fill="none">
  <path d="M7.99965 12.1611L4.30885 9.96093C3.95457 10.3453 3.50411 10.6064 3.01425 10.7114C2.52439 10.8163 2.01706 10.7604 1.55623 10.5507C1.0954 10.341 0.701687 9.98684 0.424739 9.53291C0.14779 9.07898 0 8.5456 0 8C0 7.4544 0.14779 6.92102 0.424739 6.46709C0.701687 6.01316 1.0954 5.65902 1.55623 5.44929C2.01706 5.23957 2.52439 5.18367 3.01425 5.28862C3.50411 5.39358 3.95457 5.6547 4.30885 6.03907L7.99965 3.83895C7.87306 3.18983 7.96449 2.5126 8.2572 1.93111C8.54992 1.34961 9.02436 0.902709 9.59376 0.67212C10.1632 0.441531 10.7895 0.442666 11.3582 0.675319C11.9269 0.907972 12.4 1.35659 12.6909 1.93915C12.9819 2.5217 13.0712 3.19926 12.9427 3.84791C12.8141 4.49656 12.4763 5.07297 11.9908 5.47171C11.5054 5.87046 10.9049 6.06491 10.2991 6.01949C9.69326 5.97408 9.12265 5.69184 8.69158 5.22439L5.00078 7.42451C5.07431 7.8037 5.07431 8.19551 5.00078 8.5747L8.69158 10.7756C9.12265 10.3082 9.69326 10.0259 10.2991 9.98051C10.9049 9.93509 11.5054 10.1295 11.9908 10.5283C12.4763 10.927 12.8141 11.5034 12.9427 12.1521C13.0712 12.8007 12.9819 13.4783 12.6909 14.0609C12.4 14.6434 11.9269 15.092 11.3582 15.3247C10.7895 15.5573 10.1632 15.5585 9.59376 15.3279C9.02436 15.0973 8.54992 14.6504 8.2572 14.0689C7.96449 13.4874 7.87306 12.8102 7.99965 12.1611Z" fill="#A9A9A9"/>
</svg>