<svg width="24" height="24" viewBox="0 0 24 24" fill="none" xmlns="http://www.w3.org/2000/svg">
<g id="Iconly/Light-outline/Home">
<g id="Home">
<path id="Home_2" fill-rule="evenodd" clip-rule="evenodd" d="M20.3394 7.65899C21.0094 8.17799 21.4204 8.94899 21.4904 9.78799L21.5004 9.98899V18.098C21.5004 20.188 19.8494 21.888 17.7804 21.998H15.7904C14.8394 21.979 14.0704 21.239 14.0004 20.309L13.9904 20.168V17.309C13.9904 16.998 13.7594 16.739 13.4504 16.688L13.3604 16.678H10.6894C10.3704 16.688 10.1104 16.918 10.0704 17.218L10.0604 17.309V20.159C10.0604 20.218 10.0494 20.288 10.0404 20.338L10.0304 20.359L10.0194 20.428C9.90043 21.279 9.20043 21.928 8.33043 21.989L8.20043 21.998H6.41043C4.32043 21.998 2.61043 20.359 2.50043 18.298V9.98899C2.50943 9.13799 2.88043 8.34799 3.50043 7.79799L9.73043 2.78799C11.0004 1.77899 12.7804 1.73899 14.0894 2.66799L14.2504 2.78799L20.3394 7.65899ZM20.0994 18.258L20.1104 18.098V9.99799C20.0994 9.56899 19.9204 9.16799 19.6104 8.86899L19.4804 8.75799L13.3804 3.87799C12.6204 3.26799 11.5404 3.23899 10.7404 3.76799L10.5894 3.87799L4.50943 8.77899C4.16043 9.03799 3.95043 9.42799 3.90043 9.83799L3.88943 9.99799V18.098C3.88943 19.428 4.92943 20.518 6.25043 20.598H8.20043C8.42043 20.598 8.61043 20.449 8.63943 20.239L8.66043 20.059L8.67043 20.008V17.309C8.67043 16.239 9.49043 15.369 10.5404 15.288H13.3604C14.4294 15.288 15.2994 16.109 15.3804 17.159V20.168C15.3804 20.378 15.5304 20.559 15.7304 20.598H17.5894C18.9294 20.598 20.0194 19.569 20.0994 18.258Z" fill="#BDBDBD"/>
</g>
</g>
</svg>
