<svg width="22" height="22" viewBox="0 0 22 22" fill="none" xmlns="http://www.w3.org/2000/svg">
<path fill-rule="evenodd" clip-rule="evenodd" d="M17.372 1.76666C16.9438 1.60146 16.4777 1.55988 16.027 1.64666L15.75 1.69966V3.35467C16.474 3.21654 17.2222 3.28374 17.91 3.54866C18.338 3.71366 18.802 3.75467 19.25 3.66867V2.01166C18.6415 2.09166 18.0227 2.01809 17.45 1.79766L17.372 1.76666ZM15.75 4.88166L16.027 4.82766C16.4777 4.74088 16.9438 4.78246 17.372 4.94766C18.1196 5.23551 18.9371 5.28922 19.716 5.10166L19.783 5.08566C20.35 4.94966 20.75 4.44166 20.75 3.85766V1.63766C20.75 0.867665 20.03 0.301665 19.282 0.481665C18.853 0.584665 18.402 0.555665 17.99 0.396665L17.91 0.366665C17.2203 0.100944 16.4698 0.0340765 15.744 0.173665L15.258 0.266665C14.9744 0.321262 14.7187 0.472896 14.5348 0.695524C14.3508 0.918151 14.2501 1.19788 14.25 1.48666V4.98666H6C5.9544 4.98654 5.90888 4.99056 5.864 4.99866C5.14557 4.94873 4.42456 5.04714 3.74579 5.28777C3.06702 5.5284 2.44502 5.90611 1.91846 6.3974C1.39191 6.88869 0.972056 7.48306 0.685023 8.14355C0.39799 8.80403 0.249913 9.51651 0.25 10.2367V15.5037C0.25 16.2948 0.564279 17.0535 1.1237 17.613C1.4007 17.89 1.72954 18.1097 2.09146 18.2596C2.45337 18.4095 2.84127 18.4867 3.233 18.4867H8.75V20.7367C8.75 20.9356 8.82902 21.1263 8.96967 21.267C9.11032 21.4076 9.30109 21.4867 9.5 21.4867C9.69891 21.4867 9.88968 21.4076 10.0303 21.267C10.171 21.1263 10.25 20.9356 10.25 20.7367V18.4867H12.75V20.7367C12.75 20.9356 12.829 21.1263 12.9697 21.267C13.1103 21.4076 13.3011 21.4867 13.5 21.4867C13.6989 21.4867 13.8897 21.4076 14.0303 21.267C14.171 21.1263 14.25 20.9356 14.25 20.7367V18.4867H18.793C19.1813 18.4867 19.5658 18.4102 19.9246 18.2616C20.2834 18.113 20.6093 17.8952 20.8839 17.6206C21.1585 17.346 21.3763 17.02 21.5249 16.6613C21.6735 16.3025 21.75 15.918 21.75 15.5297V10.2367C21.75 7.33666 19.4 4.98666 16.5 4.98666H15.75V4.88166ZM14.25 6.48566V9.73666C14.25 9.93558 14.329 10.1263 14.4697 10.267C14.6103 10.4076 14.8011 10.4867 15 10.4867C15.1989 10.4867 15.3897 10.4076 15.5303 10.267C15.671 10.1263 15.75 9.93558 15.75 9.73666V6.48666H16.5C17.4946 6.48666 18.4484 6.88175 19.1517 7.58501C19.8549 8.28828 20.25 9.2421 20.25 10.2367V15.5297C20.25 16.3337 19.598 16.9867 18.793 16.9867H10.75V10.2367C10.75 8.76666 10.147 7.43866 9.174 6.48666L14.25 6.48566ZM9.25 16.9857V10.2367C9.25 9.2421 8.85491 8.28828 8.15165 7.58501C7.44839 6.88175 6.49456 6.48666 5.5 6.48666C4.50544 6.48666 3.55161 6.88175 2.84835 7.58501C2.14509 8.28828 1.75 9.2421 1.75 10.2367V15.5037C1.75 16.3227 2.414 16.9867 3.233 16.9867L9.25 16.9857ZM3.25 14.7357C3.25 14.5368 3.32902 14.346 3.46967 14.2053C3.61032 14.0647 3.80109 13.9857 4 13.9857H7C7.19891 13.9857 7.38968 14.0647 7.53033 14.2053C7.67098 14.346 7.75 14.5368 7.75 14.7357C7.75 14.9346 7.67098 15.1253 7.53033 15.266C7.38968 15.4066 7.19891 15.4857 7 15.4857H4C3.80109 15.4857 3.61032 15.4066 3.46967 15.266C3.32902 15.1253 3.25 14.9346 3.25 14.7357Z" fill="#BDBDBD"/>
</svg>
