<svg width="24" height="24" viewBox="0 0 24 24" fill="none" xmlns="http://www.w3.org/2000/svg">
<g id="clarity:resource-pool-outline-badged" clip-path="url(#clip0_103_871)">
<path id="Vector" d="M20.8 8.93319C21.0721 9.70754 21.2403 10.5146 21.3 11.3332H11.66L5.53331 18.7132C4.01538 17.2339 3.04618 15.2819 2.78515 13.1785C2.52411 11.0751 2.9868 8.94547 4.09709 7.13999C5.20739 5.3345 6.89915 3.9607 8.89406 3.24459C10.889 2.52847 13.0682 2.5127 15.0733 3.19986C15.1438 2.75768 15.2738 2.32709 15.46 1.91986C13.1708 1.12833 10.6809 1.13638 8.39697 1.94269C6.11299 2.749 4.1699 4.30591 2.88504 6.35916C1.60018 8.41241 1.04949 10.8406 1.3229 13.2473C1.59632 15.6539 2.67768 17.8968 4.39038 19.6095C6.10308 21.3222 8.34591 22.4035 10.7525 22.6769C13.1592 22.9503 15.5874 22.3997 17.6407 21.1148C19.6939 19.8299 21.2508 17.8868 22.0571 15.6029C22.8635 13.3189 22.8715 10.829 22.08 8.53986C21.6731 8.72831 21.2425 8.86063 20.8 8.93319ZM12 21.3332C10.0458 21.3322 8.14187 20.7139 6.55998 19.5665L12.2866 12.6665H21.3C21.1315 15.0188 20.0788 17.2201 18.3536 18.8279C16.6283 20.4357 14.3583 21.3308 12 21.3332Z" fill="#BDBDBD"/>
<path id="Vector_2" d="M20 7.33366C21.841 7.33366 23.3334 5.84127 23.3334 4.00033C23.3334 2.15938 21.841 0.666992 20 0.666992C18.1591 0.666992 16.6667 2.15938 16.6667 4.00033C16.6667 5.84127 18.1591 7.33366 20 7.33366Z" fill="#BDBDBD"/>
</g>
<defs>
<clipPath id="clip0_103_871">
<rect width="24" height="24" fill="white"/>
</clipPath>
</defs>
</svg>
