<svg width="23" height="22" viewBox="0 0 23 22" fill="none" xmlns="http://www.w3.org/2000/svg">
<g id="Iconly/Light-outline/Setting">
<g id="Setting">
<path id="Setting_2" fill-rule="evenodd" clip-rule="evenodd" d="M12.0648 1.83325H10.9326C10.295 1.83325 9.68373 2.08217 9.23396 2.52494C8.83532 2.91739 8.59146 3.43482 8.54444 3.98541L8.53664 4.16324C8.52794 4.74231 8.06013 5.19407 7.48593 5.19401C7.35571 5.19265 7.22047 5.16293 7.09596 5.10694L6.97382 5.04315C5.84559 4.40924 4.37868 4.79753 3.71675 5.9231L3.12157 6.88129C2.4887 7.95703 2.80084 9.30845 3.82245 10.0045L3.96453 10.0938C4.3147 10.2926 4.51488 10.6323 4.51488 10.9999C4.51488 11.338 4.34534 11.6541 4.06258 11.8459L3.96606 11.9051C2.90764 12.5044 2.49061 13.827 3.02264 14.9273L3.10039 15.0738L3.68462 16.0621C3.98828 16.5992 4.50864 17.0038 5.12408 17.1752C5.66957 17.327 6.25172 17.285 6.76782 17.0576L6.93102 16.9778C7.20568 16.8222 7.48944 16.7849 7.75577 16.8547C8.02209 16.9246 8.24891 17.0957 8.38581 17.3302C8.46129 17.4549 8.5056 17.5836 8.52141 17.7169L8.5292 17.8523C8.52785 19.1117 9.60451 20.1666 10.9326 20.1666H12.065C13.3191 20.1666 14.36 19.2227 14.4618 18.0046L14.4692 17.8472C14.4685 17.543 14.5784 17.2813 14.775 17.0886C14.9716 16.896 15.2387 16.7883 15.5168 16.7896C15.6447 16.7931 15.7851 16.8245 15.9152 16.8815L16.04 16.9445C17.0926 17.5398 18.472 17.234 19.1824 16.233L19.2736 16.0938L19.8783 15.107C20.2038 14.5596 20.2919 13.9165 20.1276 13.3127C19.9819 12.7774 19.648 12.3105 19.1857 11.9937L19.0326 11.8976C18.7666 11.7469 18.5913 11.5231 18.5198 11.2606C18.4484 10.998 18.4867 10.7184 18.6263 10.4836C18.7036 10.3514 18.8064 10.2414 18.9297 10.1572L19.1656 10.012C20.1206 9.37674 20.4783 8.12634 19.9756 7.07513L19.9234 6.97277C19.9122 6.94607 19.8991 6.92003 19.8843 6.89484L19.3222 5.93926C18.6969 4.87583 17.3446 4.46314 16.2171 4.98246L16.067 5.05844C15.7975 5.21289 15.513 5.25193 15.2452 5.18379C14.9774 5.11566 14.7482 4.94595 14.6082 4.71208C14.5364 4.59348 14.4921 4.46481 14.4763 4.33149L14.4685 4.19611C14.4882 3.62046 14.2431 3.00366 13.7901 2.54707C13.3371 2.09048 12.7147 1.83299 12.0648 1.83325ZM10.9326 3.16035H12.065C12.3492 3.16023 12.621 3.27269 12.8188 3.47209C13.0167 3.6715 13.1237 3.94088 13.1156 4.21886L13.1276 4.44991C13.1686 4.80311 13.2744 5.11037 13.4416 5.3864C13.7617 5.92126 14.2888 6.31159 14.9048 6.46829C15.5208 6.625 16.1751 6.53521 16.7235 6.21872L16.818 6.17152L16.9198 6.13159C17.3674 5.9844 17.895 6.17069 18.1486 6.60183L18.6847 7.51407L18.6963 7.53977L18.7611 7.66218C18.978 8.11704 18.7967 8.6924 18.3274 8.96137L18.18 9.0523C17.8675 9.26497 17.6278 9.52148 17.4534 9.81982C17.1348 10.3556 17.0467 10.9987 17.211 11.6025C17.3604 12.1515 17.7073 12.6268 18.1846 12.9428L18.4341 13.0974C18.6102 13.2189 18.7554 13.4219 18.8188 13.6546C18.8902 13.9171 18.8519 14.1968 18.7123 14.4316L18.1216 15.396L18.0552 15.4977C17.7819 15.8819 17.2426 16.0246 16.788 15.8291L16.4984 15.6841C16.1753 15.5417 15.8593 15.4712 15.5382 15.4628C14.8838 15.4595 14.2695 15.7071 13.8172 16.1502C13.3649 16.5933 13.1122 17.1952 13.1153 17.8218L13.1101 17.9218C13.0674 18.4271 12.6126 18.8395 12.065 18.8395H10.9326C10.3913 18.8395 9.94557 18.4382 9.88854 17.9226L9.87007 17.5985C9.82911 17.2453 9.7233 16.9381 9.55609 16.662C9.24526 16.1295 8.72122 15.7341 8.10592 15.5728C7.49062 15.4114 6.83504 15.4976 6.2849 15.8121L6.18524 15.8599C5.98688 15.9466 5.73262 15.965 5.49439 15.8986C5.2256 15.8238 4.99834 15.6471 4.86289 15.4076L4.28608 14.4327L4.23449 14.3351C4.01599 13.8819 4.19741 13.3065 4.66752 13.0401L4.81034 12.9521C5.48128 12.4978 5.86941 11.7741 5.86941 10.9999C5.86941 10.2143 5.47013 9.48435 4.81195 9.04834L4.57297 8.90006C4.15068 8.61169 4.01429 8.02115 4.28701 7.55743L4.88219 6.59923C5.1795 6.09406 5.82015 5.92447 6.32257 6.20653L6.49891 6.29765C6.82826 6.44677 7.15122 6.51773 7.47882 6.52107C8.74972 6.52123 9.78894 5.56488 9.88378 4.34629L9.89609 4.06681C9.91469 3.85671 10.0207 3.63172 10.1941 3.46109C10.3896 3.26858 10.6554 3.16035 10.9326 3.16035ZM11.503 8.00409C9.8142 8.00409 8.44519 9.34537 8.44519 10.9999C8.44519 12.6545 9.8142 13.9957 11.503 13.9957C13.1917 13.9957 14.5607 12.6545 14.5607 10.9999C14.5607 9.34537 13.1917 8.00409 11.503 8.00409ZM11.503 9.33118C12.4436 9.33118 13.2062 10.0783 13.2062 10.9999C13.2062 11.9215 12.4436 12.6687 11.503 12.6687C10.5623 12.6687 9.79973 11.9215 9.79973 10.9999C9.79973 10.0783 10.5623 9.33118 11.503 9.33118Z" fill="#369FFF"/>
</g>
</g>
</svg>
